<svg width="1000" height="1000" viewBox="0 0 1000 1000" fill="none" xmlns="http://www.w3.org/2000/svg">
<path d="M921.551 518.742L934.03 521.002L924.763 572.166L802.468 550.016L811.735 498.852L830.454 502.242L829.982 476.38L787.554 468.696L778.042 492.75L796.76 496.14L787.493 547.304L680.798 527.979L690.065 476.815L702.544 479.075L789.961 297.072L903.521 317.64L921.551 518.742ZM800.407 436.869L829.108 442.068L827.562 377.668L824.442 377.103L800.407 436.869Z" fill="white"/>
<path d="M627.781 351.607L573.249 351.866L573.131 327.137L552.84 327.233L553.519 469.905L575.712 469.799L575.959 521.795L442.799 522.428L442.552 470.432L464.745 470.327L464.067 327.655L443.776 327.752L443.893 352.482L389.361 352.741L388.996 276.015L627.416 274.881L627.781 351.607Z" fill="white"/>
<path d="M300.271 334.06L284.677 336.911L310.339 477.258L325.933 474.406L335.286 525.555L217.395 547.111L208.043 495.963L223.013 493.225L213.603 441.765L169.94 449.749L179.35 501.209L194.32 498.472L203.672 549.62L85.7815 571.177L76.429 520.028L92.023 517.177L66.3606 376.831L50.7666 379.682L41.4141 328.534L159.305 306.977L168.657 358.126L153.687 360.863L162.355 408.269L206.019 400.285L197.35 352.879L182.38 355.616L173.028 304.468L290.918 282.912L300.271 334.06Z" fill="white"/>
<path d="M903.52 317.642L921.551 518.742L934.029 521.003L924.763 572.167L802.468 550.017L811.735 498.853L830.454 502.244L829.983 476.382L787.554 468.697L778.041 492.75L796.76 496.141L787.494 547.304L680.798 527.981L690.066 476.815L702.543 479.076L789.962 297.072L903.52 317.642ZM707.376 488.543L696.875 486.644L690.622 521.167L780.68 537.478L786.933 502.955L766.387 499.231L782.241 459.141L838.308 469.296L839.096 512.401L818.545 508.68L812.295 543.205L917.949 562.34L924.202 527.815L913.704 525.914L895.673 324.813L794.792 306.542L707.376 488.543ZM819.169 367.556L835.848 370.578L837.811 452.236L788.691 443.342L819.169 367.556ZM800.407 436.87L829.11 442.069L827.563 377.669L824.441 377.105L800.407 436.87Z" fill="#2C3546"/>
<path d="M627.782 351.607L573.251 351.866L573.132 327.135L552.84 327.233L553.519 469.905L575.713 469.798L575.961 521.795L442.801 522.428L442.554 470.431L464.746 470.326L464.068 327.654L443.777 327.751L443.893 352.48L389.363 352.74L388.996 276.014L627.417 274.881L627.782 351.607ZM397.49 284.432L397.776 344.248L435.399 344.067L435.282 319.338L472.482 319.159L473.241 478.74L451.046 478.847L451.215 513.936L567.467 513.381L567.298 478.295L545.105 478.4L544.346 318.819L581.545 318.641L581.662 343.372L619.287 343.191L619.002 283.376L397.49 284.432Z" fill="#2C3546"/>
<path d="M300.27 334.059L284.675 336.909L310.339 477.257L325.934 474.404L335.285 525.554L217.393 547.109L208.042 495.962L223.011 493.225L213.603 441.764L169.939 449.747L179.349 501.208L194.318 498.472L203.671 549.619L85.7801 571.176L76.4291 520.027L92.0236 517.176L66.3595 376.831L50.765 379.681L41.4141 328.532L159.305 306.977L168.656 358.124L153.688 360.863L162.356 408.267L206.017 400.284L197.349 352.877L182.381 355.616L173.027 304.466L290.919 282.912L300.27 334.059ZM182.864 311.264L189.174 345.78L204.145 343.041L215.856 407.08L155.558 418.106L143.849 354.065L158.818 351.328L152.508 316.815L51.2504 335.329L57.5606 369.845L73.155 366.992L101.86 523.972L86.2655 526.822L92.5756 561.335L193.833 542.824L187.523 508.308L172.554 511.045L160.103 442.951L220.398 431.928L232.85 500.021L217.879 502.76L224.189 537.27L325.446 518.756L319.136 484.243L303.544 487.094L274.839 330.114L290.431 327.263L284.121 292.75L182.864 311.264Z" fill="#2C3546"/>
<path d="M235.994 653.968H254.783V657.479H247.404V677.178H243.341V657.479H235.994V653.968ZM267.201 653.968H271.524L280.464 677.178H276.108L273.93 671.034H264.665L262.487 677.178H258.294L267.201 653.968ZM265.77 667.946H272.857L269.379 657.966H269.281L265.77 667.946ZM289.175 653.968H293.239V677.178H289.175V653.968ZM302.514 653.968H321.303V657.479H313.924V677.178H309.861V657.479H302.514V653.968ZM340.378 656.731C339.142 656.731 338.07 656.98 337.159 657.479C336.271 657.977 335.545 658.649 334.981 659.494C334.418 660.318 333.995 661.26 333.714 662.322C333.454 663.384 333.324 664.468 333.324 665.573C333.324 666.678 333.454 667.762 333.714 668.824C333.995 669.886 334.418 670.839 334.981 671.684C335.545 672.508 336.271 673.169 337.159 673.667C338.07 674.166 339.142 674.415 340.378 674.415C341.613 674.415 342.675 674.166 343.563 673.667C344.474 673.169 345.21 672.508 345.774 671.684C346.337 670.839 346.749 669.886 347.009 668.824C347.291 667.762 347.432 666.678 347.432 665.573C347.432 664.468 347.291 663.384 347.009 662.322C346.749 661.26 346.337 660.318 345.774 659.494C345.21 658.649 344.474 657.977 343.563 657.479C342.675 656.98 341.613 656.731 340.378 656.731ZM340.378 653.415C342.111 653.415 343.661 653.74 345.026 654.39C346.413 655.041 347.583 655.918 348.537 657.024C349.491 658.129 350.217 659.418 350.715 660.892C351.235 662.366 351.495 663.926 351.495 665.573C351.495 667.242 351.235 668.813 350.715 670.287C350.217 671.76 349.491 673.05 348.537 674.155C347.583 675.26 346.413 676.138 345.026 676.788C343.661 677.417 342.111 677.731 340.378 677.731C338.644 677.731 337.084 677.417 335.697 676.788C334.331 676.138 333.172 675.26 332.218 674.155C331.265 673.05 330.528 671.76 330.008 670.287C329.509 668.813 329.26 667.242 329.26 665.573C329.26 663.926 329.509 662.366 330.008 660.892C330.528 659.418 331.265 658.129 332.218 657.024C333.172 655.918 334.331 655.041 335.697 654.39C337.084 653.74 338.644 653.415 340.378 653.415ZM361.695 653.968H365.758V673.667H377.559V677.178H361.695V653.968ZM386.603 653.968H390.666V667.491C390.666 668.271 390.699 669.062 390.764 669.864C390.85 670.666 391.067 671.392 391.414 672.042C391.782 672.671 392.324 673.191 393.039 673.602C393.776 674.014 394.805 674.22 396.127 674.22C397.449 674.22 398.468 674.014 399.183 673.602C399.92 673.191 400.462 672.671 400.809 672.042C401.177 671.392 401.394 670.666 401.459 669.864C401.545 669.062 401.589 668.271 401.589 667.491V653.968H405.652V668.824C405.652 670.319 405.425 671.619 404.97 672.725C404.514 673.83 403.864 674.762 403.019 675.52C402.196 676.257 401.199 676.81 400.028 677.178C398.858 677.547 397.558 677.731 396.127 677.731C394.697 677.731 393.397 677.547 392.227 677.178C391.056 676.81 390.049 676.257 389.203 675.52C388.38 674.762 387.741 673.83 387.285 672.725C386.83 671.619 386.603 670.319 386.603 668.824V653.968ZM416.824 653.968H420.888V677.178H416.824V653.968ZM435.039 669.441C435.039 670.33 435.191 671.088 435.494 671.717C435.797 672.345 436.22 672.866 436.762 673.277C437.304 673.667 437.921 673.96 438.615 674.155C439.33 674.328 440.099 674.415 440.923 674.415C441.811 674.415 442.57 674.318 443.198 674.123C443.827 673.906 444.336 673.635 444.726 673.31C445.116 672.985 445.398 672.616 445.571 672.205C445.745 671.771 445.831 671.338 445.831 670.904C445.831 670.016 445.625 669.366 445.214 668.954C444.824 668.52 444.39 668.217 443.913 668.044C443.09 667.74 442.126 667.458 441.02 667.198C439.937 666.917 438.593 666.559 436.989 666.126C435.992 665.866 435.158 665.53 434.486 665.118C433.836 664.685 433.316 664.208 432.926 663.688C432.536 663.168 432.254 662.615 432.081 662.03C431.929 661.445 431.853 660.849 431.853 660.242C431.853 659.072 432.092 658.064 432.568 657.219C433.067 656.352 433.717 655.637 434.519 655.073C435.321 654.51 436.231 654.098 437.249 653.838C438.268 653.556 439.297 653.415 440.338 653.415C441.551 653.415 442.689 653.578 443.751 653.903C444.834 654.206 445.777 654.672 446.579 655.301C447.403 655.929 448.053 656.709 448.529 657.641C449.006 658.551 449.245 659.613 449.245 660.827H445.181C445.073 659.332 444.564 658.281 443.653 657.674C442.743 657.045 441.584 656.731 440.175 656.731C439.698 656.731 439.211 656.785 438.712 656.894C438.214 656.98 437.759 657.143 437.347 657.381C436.935 657.598 436.588 657.901 436.307 658.291C436.047 658.681 435.917 659.169 435.917 659.754C435.917 660.578 436.166 661.228 436.664 661.705C437.184 662.16 437.856 662.507 438.68 662.745C438.766 662.767 439.102 662.864 439.687 663.037C440.294 663.189 440.966 663.363 441.703 663.558C442.44 663.753 443.155 663.948 443.848 664.143C444.564 664.316 445.073 664.446 445.376 664.533C446.135 664.771 446.796 665.096 447.359 665.508C447.923 665.92 448.389 666.397 448.757 666.938C449.147 667.458 449.429 668.022 449.602 668.629C449.797 669.236 449.895 669.842 449.895 670.449C449.895 671.749 449.624 672.866 449.082 673.797C448.562 674.708 447.869 675.455 447.002 676.04C446.135 676.626 445.149 677.048 444.043 677.308C442.938 677.59 441.811 677.731 440.663 677.731C439.341 677.731 438.095 677.568 436.924 677.243C435.754 676.918 434.735 676.42 433.869 675.748C433.002 675.076 432.308 674.22 431.788 673.18C431.268 672.118 430.997 670.872 430.975 669.441H435.039ZM457.743 653.968H476.533V657.479H469.153V677.178H465.09V657.479H457.743V653.968ZM485.725 653.968H502.434V657.479H489.788V663.558H501.491V666.873H489.788V673.667H502.661V677.178H485.725V653.968ZM512.702 653.968H516.766V673.667H528.566V677.178H512.702V653.968ZM537.61 653.968H541.674V667.491C541.674 668.271 541.706 669.062 541.771 669.864C541.858 670.666 542.074 671.392 542.421 672.042C542.79 672.671 543.331 673.191 544.047 673.602C544.783 674.014 545.813 674.22 547.135 674.22C548.457 674.22 549.475 674.014 550.19 673.602C550.927 673.191 551.469 672.671 551.816 672.042C552.184 671.392 552.401 670.666 552.466 669.864C552.553 669.062 552.596 668.271 552.596 667.491V653.968H556.659V668.824C556.659 670.319 556.432 671.619 555.977 672.725C555.522 673.83 554.872 674.762 554.026 675.52C553.203 676.257 552.206 676.81 551.036 677.178C549.865 677.547 548.565 677.731 547.135 677.731C545.704 677.731 544.404 677.547 543.234 677.178C542.064 676.81 541.056 676.257 540.211 675.52C539.387 674.762 538.748 673.83 538.293 672.725C537.838 671.619 537.61 670.319 537.61 668.824V653.968ZM574.041 653.968H578.364L587.304 677.178H582.948L580.77 671.034H571.505L569.327 677.178H565.134L574.041 653.968ZM572.61 667.946H579.697L576.219 657.966H576.121L572.61 667.946ZM596.015 653.968H600.079V664.533L610.416 653.968H615.422L606.158 663.233L616.072 677.178H611.001L603.395 666.093L600.079 669.376V677.178H596.015V653.968ZM630.979 653.968H635.303L644.242 677.178H639.886L637.708 671.034H628.444L626.266 677.178H622.072L630.979 653.968ZM629.549 667.946H636.636L633.157 657.966H633.06L629.549 667.946ZM647.76 653.968H666.549V657.479H659.17V677.178H655.106V657.479H647.76V653.968ZM675.741 653.968H692.45V657.479H679.805V663.558H691.507V666.873H679.805V673.667H692.678V677.178H675.741V653.968ZM702.654 653.968H708.375L714.779 672.14H714.844L721.085 653.968H726.742V677.178H722.873V659.267H722.808L716.372 677.178H713.023L706.587 659.267H706.522V677.178H702.654V653.968ZM738.109 653.968H742.172V677.178H738.109V653.968ZM759.866 653.968H764.19L773.129 677.178H768.773L766.595 671.034H757.331L755.153 677.178H750.959L759.866 653.968ZM758.436 667.946H765.523L762.044 657.966H761.947L758.436 667.946Z" fill="#2C3546"/>
<path d="M399.605 600.467H403.668V609.7H414.233V600.467H418.296V623.678H414.233V613.21H403.668V623.678H399.605V600.467ZM429.664 600.467H446.372V603.978H433.727V610.057H445.43V613.373H433.727V620.167H446.6V623.678H429.664V600.467ZM456.641 600.467H460.704V620.167H472.505V623.678H456.641V600.467ZM484.474 615.941C484.474 616.829 484.626 617.588 484.93 618.216C485.233 618.845 485.656 619.365 486.197 619.777C486.739 620.167 487.357 620.459 488.05 620.655C488.765 620.828 489.535 620.915 490.358 620.915C491.247 620.915 492.005 620.817 492.634 620.622C493.262 620.405 493.772 620.134 494.162 619.809C494.552 619.484 494.834 619.116 495.007 618.704C495.18 618.271 495.267 617.837 495.267 617.404C495.267 616.515 495.061 615.865 494.649 615.453C494.259 615.02 493.826 614.717 493.349 614.543C492.526 614.24 491.561 613.958 490.456 613.698C489.372 613.416 488.029 613.059 486.425 612.625C485.428 612.365 484.594 612.029 483.922 611.617C483.272 611.184 482.752 610.707 482.362 610.187C481.971 609.667 481.69 609.114 481.516 608.529C481.365 607.944 481.289 607.348 481.289 606.741C481.289 605.571 481.527 604.563 482.004 603.718C482.502 602.851 483.153 602.136 483.954 601.573C484.756 601.009 485.666 600.597 486.685 600.337C487.704 600.056 488.733 599.915 489.773 599.915C490.987 599.915 492.125 600.077 493.187 600.402C494.27 600.706 495.213 601.172 496.015 601.8C496.838 602.429 497.488 603.209 497.965 604.141C498.442 605.051 498.68 606.113 498.68 607.326H494.617C494.508 605.831 493.999 604.78 493.089 604.173C492.179 603.545 491.019 603.231 489.611 603.231C489.134 603.231 488.646 603.285 488.148 603.393C487.649 603.48 487.194 603.642 486.783 603.881C486.371 604.097 486.024 604.401 485.742 604.791C485.482 605.181 485.352 605.669 485.352 606.254C485.352 607.077 485.601 607.727 486.1 608.204C486.62 608.659 487.292 609.006 488.115 609.244C488.202 609.266 488.538 609.364 489.123 609.537C489.73 609.689 490.402 609.862 491.139 610.057C491.875 610.252 492.591 610.447 493.284 610.642C493.999 610.816 494.508 610.946 494.812 611.032C495.57 611.271 496.231 611.596 496.795 612.008C497.358 612.419 497.824 612.896 498.193 613.438C498.583 613.958 498.864 614.521 499.038 615.128C499.233 615.735 499.33 616.342 499.33 616.949C499.33 618.249 499.06 619.365 498.518 620.297C497.998 621.207 497.304 621.955 496.437 622.54C495.57 623.125 494.584 623.548 493.479 623.808C492.374 624.089 491.247 624.23 490.098 624.23C488.776 624.23 487.53 624.068 486.36 623.743C485.19 623.418 484.171 622.919 483.304 622.247C482.437 621.576 481.744 620.72 481.224 619.679C480.704 618.617 480.433 617.371 480.411 615.941H484.474ZM509.389 600.467H513.453V623.678H509.389V600.467ZM524.776 600.467H529.067L539.664 617.566H539.729V600.467H543.598V623.678H539.307L528.742 606.611H528.644V623.678H524.776V600.467ZM575.152 623.678H572.551L571.934 620.947C570.85 622.182 569.767 623.038 568.683 623.515C567.599 623.992 566.353 624.23 564.945 624.23C563.211 624.23 561.651 623.916 560.264 623.288C558.898 622.637 557.739 621.76 556.785 620.655C555.832 619.549 555.095 618.26 554.575 616.786C554.076 615.312 553.827 613.741 553.827 612.073C553.827 610.426 554.076 608.865 554.575 607.391C555.095 605.918 555.832 604.628 556.785 603.523C557.739 602.418 558.898 601.54 560.264 600.89C561.651 600.24 563.211 599.915 564.945 599.915C566.202 599.915 567.394 600.088 568.521 600.435C569.669 600.76 570.688 601.258 571.576 601.93C572.465 602.58 573.202 603.404 573.787 604.401C574.372 605.398 574.74 606.546 574.892 607.847H570.926C570.818 607.088 570.579 606.427 570.211 605.864C569.864 605.279 569.42 604.791 568.878 604.401C568.336 604.011 567.73 603.718 567.058 603.523C566.386 603.328 565.682 603.231 564.945 603.231C563.709 603.231 562.637 603.48 561.726 603.978C560.838 604.477 560.112 605.148 559.548 605.994C558.985 606.817 558.562 607.76 558.281 608.822C558.021 609.884 557.891 610.967 557.891 612.073C557.891 613.178 558.021 614.261 558.281 615.323C558.562 616.385 558.985 617.339 559.548 618.184C560.112 619.007 560.838 619.668 561.726 620.167C562.637 620.665 563.709 620.915 564.945 620.915C565.985 620.936 566.906 620.806 567.708 620.525C568.51 620.221 569.182 619.799 569.723 619.257C570.287 618.693 570.709 618.011 570.991 617.209C571.273 616.407 571.425 615.518 571.446 614.543H565.27V611.455H575.152V623.678ZM586.068 600.467H590.131V623.678H586.068V600.467ZM601.454 600.467H605.745L616.343 617.566H616.408V600.467H620.276V623.678H615.985L605.42 606.611H605.323V623.678H601.454V600.467Z" fill="#2C3546"/>
<path d="M480.846 730.734H465.308C465.33 728.848 465.785 727.201 466.673 725.793C467.562 724.384 468.775 723.16 470.314 722.119C471.051 721.578 471.82 721.057 472.622 720.559C473.424 720.039 474.161 719.486 474.833 718.901C475.504 718.316 476.057 717.688 476.49 717.016C476.924 716.322 477.151 715.531 477.173 714.643C477.173 714.231 477.119 713.797 477.011 713.342C476.924 712.866 476.74 712.432 476.458 712.042C476.176 711.63 475.786 711.294 475.288 711.034C474.789 710.753 474.139 710.612 473.337 710.612C472.6 710.612 471.983 710.763 471.484 711.067C471.008 711.349 470.617 711.75 470.314 712.27C470.032 712.768 469.816 713.364 469.664 714.058C469.534 714.751 469.458 715.499 469.436 716.301H465.731C465.731 715.044 465.893 713.884 466.218 712.822C466.565 711.739 467.074 710.807 467.746 710.027C468.418 709.246 469.23 708.64 470.184 708.206C471.159 707.751 472.286 707.524 473.565 707.524C474.952 707.524 476.111 707.751 477.043 708.206C477.975 708.661 478.723 709.236 479.286 709.929C479.871 710.623 480.283 711.381 480.521 712.205C480.76 713.006 480.879 713.776 480.879 714.513C480.879 715.423 480.738 716.246 480.456 716.983C480.175 717.72 479.795 718.403 479.319 719.031C478.842 719.638 478.3 720.201 477.693 720.722C477.086 721.242 476.458 721.729 475.808 722.184C475.158 722.64 474.508 723.073 473.857 723.485C473.207 723.896 472.6 724.308 472.037 724.72C471.495 725.132 471.018 725.565 470.607 726.02C470.195 726.454 469.913 726.92 469.761 727.418H480.846V730.734ZM497.642 707.524C499.267 707.524 500.589 707.903 501.608 708.661C502.648 709.398 503.45 710.352 504.013 711.522C504.599 712.671 504.989 713.938 505.184 715.325C505.4 716.712 505.509 718.056 505.509 719.356C505.509 720.657 505.4 722 505.184 723.387C504.989 724.774 504.599 726.053 504.013 727.223C503.45 728.372 502.648 729.325 501.608 730.084C500.589 730.821 499.267 731.189 497.642 731.189C496.017 731.189 494.684 730.821 493.644 730.084C492.625 729.325 491.823 728.372 491.238 727.223C490.675 726.053 490.284 724.774 490.068 723.387C489.873 722 489.775 720.657 489.775 719.356C489.775 718.056 489.873 716.712 490.068 715.325C490.284 713.938 490.675 712.671 491.238 711.522C491.823 710.352 492.625 709.398 493.644 708.661C494.684 707.903 496.017 707.524 497.642 707.524ZM497.642 728.101C498.444 728.101 499.116 727.873 499.657 727.418C500.199 726.941 500.622 726.313 500.925 725.533C501.25 724.731 501.478 723.799 501.608 722.737C501.738 721.675 501.803 720.548 501.803 719.356C501.803 718.164 501.738 717.048 501.608 716.008C501.478 714.946 501.25 714.014 500.925 713.212C500.622 712.411 500.199 711.782 499.657 711.327C499.116 710.85 498.444 710.612 497.642 710.612C496.818 710.612 496.136 710.85 495.594 711.327C495.074 711.782 494.651 712.411 494.326 713.212C494.023 714.014 493.806 714.946 493.676 716.008C493.546 717.048 493.481 718.164 493.481 719.356C493.481 720.548 493.546 721.675 493.676 722.737C493.806 723.799 494.023 724.731 494.326 725.533C494.651 726.313 495.074 726.941 495.594 727.418C496.136 727.873 496.818 728.101 497.642 728.101ZM529.976 730.734H514.437C514.459 728.848 514.914 727.201 515.803 725.793C516.691 724.384 517.905 723.16 519.443 722.119C520.18 721.578 520.95 721.057 521.752 720.559C522.553 720.039 523.29 719.486 523.962 718.901C524.634 718.316 525.186 717.688 525.62 717.016C526.053 716.322 526.281 715.531 526.303 714.643C526.303 714.231 526.248 713.797 526.14 713.342C526.053 712.866 525.869 712.432 525.587 712.042C525.306 711.63 524.916 711.294 524.417 711.034C523.919 710.753 523.269 710.612 522.467 710.612C521.73 710.612 521.112 710.763 520.614 711.067C520.137 711.349 519.747 711.75 519.443 712.27C519.162 712.768 518.945 713.364 518.793 714.058C518.663 714.751 518.587 715.499 518.566 716.301H514.86C514.86 715.044 515.022 713.884 515.348 712.822C515.694 711.739 516.204 710.807 516.875 710.027C517.547 709.246 518.36 708.64 519.313 708.206C520.289 707.751 521.416 707.524 522.694 707.524C524.081 707.524 525.241 707.751 526.173 708.206C527.104 708.661 527.852 709.236 528.416 709.929C529.001 710.623 529.412 711.381 529.651 712.205C529.889 713.006 530.008 713.776 530.008 714.513C530.008 715.423 529.868 716.246 529.586 716.983C529.304 717.72 528.925 718.403 528.448 719.031C527.971 719.638 527.429 720.201 526.823 720.722C526.216 721.242 525.587 721.729 524.937 722.184C524.287 722.64 523.637 723.073 522.987 723.485C522.337 723.896 521.73 724.308 521.166 724.72C520.625 725.132 520.148 725.565 519.736 726.02C519.324 726.454 519.043 726.92 518.891 727.418H529.976V730.734ZM546.771 707.524C548.397 707.524 549.719 707.903 550.737 708.661C551.778 709.398 552.579 710.352 553.143 711.522C553.728 712.671 554.118 713.938 554.313 715.325C554.53 716.712 554.638 718.056 554.638 719.356C554.638 720.657 554.53 722 554.313 723.387C554.118 724.774 553.728 726.053 553.143 727.223C552.579 728.372 551.778 729.325 550.737 730.084C549.719 730.821 548.397 731.189 546.771 731.189C545.146 731.189 543.813 730.821 542.773 730.084C541.754 729.325 540.953 728.372 540.367 727.223C539.804 726.053 539.414 724.774 539.197 723.387C539.002 722 538.905 720.657 538.905 719.356C538.905 718.056 539.002 716.712 539.197 715.325C539.414 713.938 539.804 712.671 540.367 711.522C540.953 710.352 541.754 709.398 542.773 708.661C543.813 707.903 545.146 707.524 546.771 707.524ZM546.771 728.101C547.573 728.101 548.245 727.873 548.787 727.418C549.329 726.941 549.751 726.313 550.055 725.533C550.38 724.731 550.607 723.799 550.737 722.737C550.867 721.675 550.932 720.548 550.932 719.356C550.932 718.164 550.867 717.048 550.737 716.008C550.607 714.946 550.38 714.014 550.055 713.212C549.751 712.411 549.329 711.782 548.787 711.327C548.245 710.85 547.573 710.612 546.771 710.612C545.948 710.612 545.265 710.85 544.723 711.327C544.203 711.782 543.781 712.411 543.456 713.212C543.152 714.014 542.936 714.946 542.805 716.008C542.675 717.048 542.61 718.164 542.61 719.356C542.61 720.548 542.675 721.675 542.805 722.737C542.936 723.799 543.152 724.731 543.456 725.533C543.781 726.313 544.203 726.941 544.723 727.418C545.265 727.873 545.948 728.101 546.771 728.101Z" fill="#2C3546"/>
<line x1="440.758" y1="721.985" x2="402.843" y2="721.985" stroke="#2C3546" stroke-width="2.36967"/>
<line x1="616.113" y1="721.564" x2="578.199" y2="721.564" stroke="#2C3546" stroke-width="2.36967"/>
</svg>
