<svg width="266" height="318" viewBox="0 0 266 318" fill="none" xmlns="http://www.w3.org/2000/svg">
<g clip-path="url(#clip0_774_8697)">
<path d="M34.2061 43.3325L36.4129 41.1859L41.5315 46.4606L49.0409 39.2232L43.9223 33.9484L46.0985 31.8018L59.0024 45.0499L56.8262 47.1966L50.6961 41.0632L43.3093 48.4233L49.4394 54.5567L47.2325 56.6727L34.2061 43.3325Z" fill="#404755"/>
<path d="M74.0208 24.687L64.8256 30.4524L67.8906 35.4511L78.0973 29.0724L79.1088 31.4337L66.634 39.2231L56.8564 23.5216L69.1167 15.8242L70.4653 17.9709L60.7491 24.043L63.4157 28.3057L72.6108 22.5096L74.0208 24.687Z" fill="#404755"/>
<path d="M80.335 10.5494L83.1855 9.47607L88.7945 24.3802L99.0318 20.5162L99.5222 23.0616L86.8635 27.8149L80.335 10.5494Z" fill="#404755"/>
<path d="M108.258 15.3949C109.392 17.6642 111.998 18.7376 114.388 17.9095C117.791 17.3575 118.833 15.8855 118.587 14.3215C118.342 12.7575 117.208 11.7762 112.457 11.7455C106.726 11.6228 105.162 10.0895 104.764 7.63611C104.212 4.32407 107.093 1.96271 111.139 1.31871C117.269 0.36803 119.108 3.25073 119.63 5.12141L116.564 5.61209C116.043 4.50807 115.063 3.09739 111.415 3.68007C108.932 4.07874 107.523 5.15208 107.768 6.74676C108.013 8.34145 108.902 8.86279 112.978 8.89345C119.813 8.89345 121.223 10.8561 121.622 13.4322C122.02 16.0082 120.151 19.2589 114.511 20.1789C108.871 21.0989 106.297 19.0442 105.316 15.7935L108.258 15.3949Z" fill="#404755"/>
<path d="M134.494 0L134.218 18.4002H131.153L131.46 0H134.494Z" fill="#404755"/>
<path d="M144.241 18.7377L147.306 0.521484L150.892 1.16549C153.957 8.1269 157.942 15.395 158.647 17.511C158.892 15.2416 159.444 12.2363 159.965 9.26158L161.068 2.97484L163.858 3.46552L160.793 21.6817L157.39 21.0684C155.766 17.235 150.494 6.37888 149.636 4.04819C149.36 6.37888 148.9 8.95491 148.318 12.2056L147.092 19.2283L144.241 18.7377Z" fill="#404755"/>
<path d="M185.865 31.3112L183.75 30.3912C183.75 29.9619 184.271 28.7045 184.547 27.9685C182.34 29.3485 179.551 29.3485 177.344 27.9685C172.747 26.3125 170.356 21.2831 172.011 16.6831C172.164 16.2844 172.348 15.8857 172.532 15.4871C174.279 10.703 179.551 8.24965 184.333 9.99767C184.731 10.151 185.099 10.3043 185.467 10.519C190.616 12.7577 191.597 16.3764 191.198 19.1364L188.317 17.9098C188.317 15.5177 186.754 13.4324 184.486 12.7577C181.268 11.2244 177.406 12.5737 175.873 15.7937C175.75 16.0697 175.628 16.3457 175.536 16.6217C173.758 19.7191 174.8 23.6751 177.896 25.4538C178.141 25.5765 178.356 25.6992 178.601 25.8218C180.869 27.2939 183.904 26.6192 185.375 24.3498C185.589 24.0432 185.743 23.7058 185.865 23.3378L186.08 22.8778L181.053 20.8231L182.034 18.5231L189.911 21.9271L185.865 31.3112Z" fill="#404755"/>
<path d="M206.432 22.4788L196.286 37.9656L193.742 36.1562L203.888 20.8228L206.432 22.4788Z" fill="#404755"/>
<path d="M204.439 43.6391L217.067 30.0229L219.734 32.5376C218.631 40.1431 217.834 48.3005 217.282 50.4778C218.723 48.6991 220.838 46.4911 222.891 44.3444L227.274 39.6831L229.358 41.6151L216.669 55.0779L214.186 52.7472C214.738 48.4845 216.393 36.6164 216.914 34.163C215.412 35.9723 213.604 37.9044 211.366 40.2964L206.462 45.5098L204.439 43.6391Z" fill="#404755"/>
<path d="M22.3132 94.6691L24.4588 88.0757L26.8802 88.873L21.6083 104.912L19.1869 104.145L21.3324 97.4905L6.22168 92.5837L7.17185 89.6704L22.3132 94.6691Z" fill="#404755"/>
<path d="M7.17223 110.708L2.23749 107.641L2.6666 104.574L19.9229 114.817L19.4018 118.65L0 124.262L0.459759 120.95L5.97686 119.386L7.17223 110.708ZM8.64346 118.957C13.7621 117.485 16.2448 116.81 17.5934 116.565C16.3981 116.013 13.5169 114.418 9.56298 112.118L8.64346 118.957Z" fill="#404755"/>
<path d="M18.697 137.02L0.306641 137.511V134.444L18.697 133.954V137.02Z" fill="#404755"/>
<path d="M17.6244 151.679L16.3983 144.901L18.9117 144.441L21.9767 161.063L19.494 161.523L18.268 154.715L2.51362 157.536L1.96191 154.47L17.6244 151.679Z" fill="#404755"/>
<path d="M21.9151 187.467C17.3175 189.614 11.831 187.62 9.6855 183.02C9.53225 182.683 9.37899 182.346 9.28704 181.978C7.1415 177.378 9.13379 171.888 13.7314 169.742C14.0685 169.588 14.4057 169.435 14.7735 169.343C19.5856 167.319 25.1027 169.588 27.1257 174.403C27.187 174.556 27.2483 174.71 27.3096 174.894C29.4551 179.494 27.4322 184.983 22.8346 187.099C22.5281 187.222 22.2216 187.344 21.9151 187.467ZM15.785 172.318C12.3214 173.422 10.3905 177.132 11.4939 180.598C11.5552 180.782 11.6165 180.966 11.7084 181.15C12.9958 184.462 16.7351 186.087 20.0454 184.799C20.2599 184.707 20.5051 184.615 20.7197 184.492C24.1832 183.419 26.1449 179.77 25.0721 176.304C25.0108 176.09 24.9495 175.906 24.8575 175.691C23.5702 172.379 19.8308 170.754 16.5206 172.042C16.306 172.134 16.1221 172.226 15.9076 172.318H15.785Z" fill="#404755"/>
<path d="M34.4819 190.841L36.1677 193.356L22.9266 202.218L29.0568 211.418L26.6967 212.492L19.126 201.114L34.4819 190.841Z" fill="#404755"/>
<path d="M48.4892 209.517L40.9798 217.092C38.7117 218.686 38.16 221.784 39.7538 224.053C39.999 224.421 40.3055 224.728 40.612 225.004C42.8495 227.242 45.2709 227.58 48.3666 224.452L55.7534 217.03L57.9296 219.177L50.5122 226.598C48.0601 229.849 43.4625 230.493 40.2136 228.04C39.6619 227.641 39.2021 227.15 38.773 226.598C35.5547 224.114 34.9723 219.484 37.455 216.264C37.8535 215.773 38.2826 215.313 38.773 214.945L46.2824 207.401L48.4892 209.517Z" fill="#404755"/>
<path d="M67.8295 226.292L57.1325 241.38L54.6191 239.601L65.3468 224.544L67.8295 226.292Z" fill="#404755"/>
<path d="M71.3235 243.925C70.9864 246.041 71.722 247.973 74.8483 249.537C77.9747 251.101 79.6298 250.488 80.3348 249.046C81.0398 247.605 80.672 246.194 76.9326 243.465C72.2124 240.03 71.8752 237.822 73.0093 235.492C74.5112 232.425 78.1893 232.241 81.8673 234.05C87.3231 236.78 87.2618 240.184 86.5875 242.116L83.829 240.736C84.0129 239.509 84.0435 237.669 80.7639 236.136C78.4958 235.032 76.718 235.093 75.9824 236.596C75.2468 238.098 75.6453 238.957 79.0475 241.38C84.5646 245.428 84.5952 247.758 83.4611 250.089C82.3271 252.42 78.8636 253.984 73.7449 251.438C68.6263 248.893 67.6148 245.765 68.6876 242.453L71.3235 243.925Z" fill="#404755"/>
<path d="M100.289 244.508L93.6377 242.668L94.312 240.214L110.587 244.692L109.913 247.114L103.262 245.305L99.0628 260.639L95.9978 259.841L100.289 244.508Z" fill="#404755"/>
<path d="M130.663 256.714L119.782 255.916L119.384 261.774L131.399 262.663L130.816 265.147L116.135 264.104L117.483 245.704L131.981 246.747L131.797 249.292L120.334 248.464L119.966 253.463L130.847 254.23L130.663 256.714Z" fill="#404755"/>
<path d="M140.227 246.348L143.292 245.98L145.192 261.804L156.042 260.516L155.766 263.092L142.311 264.687L140.227 246.348Z" fill="#404755"/>
<path d="M163.123 242.423L166.402 252.389C166.801 255.149 169.345 257.051 172.103 256.652C172.502 256.591 172.931 256.468 173.299 256.315C176.364 255.303 177.682 253.248 176.364 249.139L173.023 239.172L175.935 238.221L179.214 248.188C181.023 251.837 179.551 256.253 175.904 258.063C175.291 258.369 174.647 258.584 173.973 258.707C170.326 260.485 165.912 258.952 164.134 255.303C163.858 254.751 163.674 254.137 163.552 253.524L160.211 243.373L163.123 242.423Z" fill="#404755"/>
<path d="M192.853 244.692L193.589 250.335L190.861 251.96L188.256 232.026L191.535 230.125L207.872 241.809L204.991 243.496L200.363 240.122L192.853 244.692ZM198.309 238.558C193.988 235.492 191.934 233.866 190.892 232.977C191.168 234.265 191.689 237.546 192.332 242.177L198.309 238.558Z" fill="#404755"/>
<path d="M203.826 221.661L206.094 219.606L212.224 226.169C212.654 222.489 213.359 217.245 213.91 212.614L216.791 210.007L215.289 222.09L229.327 223.225L226.446 225.862L214.462 224.758L214.002 228.346L218.508 233.284L216.24 235.338L203.826 221.661Z" fill="#404755"/>
<path d="M233.006 210.529L236.071 215.405L234.232 217.981L223.811 200.807L226.017 197.741L245.787 201.942L243.856 204.641L238.216 203.414L233.006 210.529ZM235.458 202.678C230.247 201.543 227.734 200.991 226.446 200.593C227.243 201.635 229.052 204.395 231.443 208.29L235.458 202.678Z" fill="#404755"/>
<path d="M236.99 184.033L233.925 190.166L231.626 189.062L238.921 173.729L241.189 174.802L238.124 180.935L252.53 187.774L251.212 190.565L236.99 184.033Z" fill="#404755"/>
<path d="M254.461 156.279L251.763 166.859L257.434 168.301L260.499 156.647L262.859 157.659L259.211 171.919L241.312 167.319L244.898 153.243L247.35 153.856L244.438 164.958L249.281 166.215L251.978 155.758L254.461 156.279Z" fill="#404755"/>
<path d="M257.342 128.311C253.848 128.157 250.783 128.157 248.698 127.973C251.763 128.955 258.537 131.991 264.943 134.689V137.357C259.549 139.136 251.487 142.08 248.422 143H257.618L264.943 143.184V145.975L246.553 145.515V141.129C252.683 138.891 259.61 136.253 261.541 135.763C259.119 134.843 252.346 131.868 246.859 129.629V125.183L265.25 125.643V128.709L257.342 128.311Z" fill="#404755"/>
<path d="M244.652 112.824L263.043 109.757L263.533 112.824L245.143 115.737L244.652 112.824Z" fill="#404755"/>
<path d="M254.614 96.5091L260.284 96.9384L261.296 100.005L241.312 98.4104L240.116 94.8224L255.043 81.2676L256.085 84.3343L251.825 88.2903L254.614 96.5091ZM249.71 89.885C245.756 93.4424 243.856 95.1597 242.752 96.0184C244.07 96.0184 247.38 96.1717 251.947 96.4784L249.71 89.885Z" fill="#404755"/>
<path d="M209.191 113.621C208.792 113.284 208.363 113.008 207.873 112.824C207.045 112.456 206.187 112.119 205.329 111.873C198.585 110.309 191.75 109.297 184.854 108.807C167.935 107.304 151.138 106.69 134.035 106.598C135.108 103.685 136.273 100.772 137.529 97.8891C140.135 91.7557 143.261 85.6223 145.56 79.0595C147.001 75.5022 147.399 71.6074 146.755 67.8354C146.296 65.6887 145.223 63.726 143.69 62.1927C142.924 61.3953 142.066 60.7207 141.116 60.1687C140.073 59.5553 138.909 59.126 137.683 58.9726C135.445 58.6966 133.177 58.9726 131.093 59.8007C129.223 60.5673 127.445 61.5793 125.882 62.8674C122.879 65.1367 120.243 67.8967 118.128 70.9941C113.898 77.0968 111.201 84.1502 110.281 91.5103C109.668 96.5704 109.913 101.722 111.047 106.69L102.404 106.905C88.5805 107.212 74.7878 108.316 61.087 110.217C59.3399 110.524 57.5928 110.831 55.8457 111.26C53.8841 111.689 51.9837 112.395 50.206 113.376L49.2865 114.081C48.8574 114.511 48.5202 115.001 48.3057 115.553C48.1524 115.952 48.0605 116.351 48.0298 116.78C47.9992 117.148 47.9992 117.485 48.0298 117.853C48.1218 118.191 48.2444 118.497 48.3976 118.804L48.7961 119.417C49.6237 120.399 50.6658 121.196 51.8611 121.717C53.5776 122.453 55.3553 123.067 57.1943 123.527C63.9988 125.121 70.9258 126.317 77.8835 127.053C92.7797 128.771 107.676 129.813 122.572 130.488C122.143 132.113 121.744 133.739 121.407 135.395C119.936 142.234 119.415 149.256 119.783 156.248C120.212 163.24 121.499 170.171 123.553 176.857C127.691 190.043 134.556 202.218 143.69 212.614L143.966 212.921L144.579 212.522L144.365 212.154C138.173 200.378 133.361 187.958 130.02 175.078C127.139 162.351 126.25 149.287 127.415 136.284C127.415 135.088 127.629 133.861 127.752 132.665C138.081 140.915 149.974 146.926 162.724 150.36C175.935 154.071 189.543 156.248 203.275 156.862H203.673V156.095H203.275C190.248 153.12 177.437 149.256 164.962 144.503C155.95 141.16 147.399 136.713 139.491 131.224C146.541 131.439 153.621 131.561 160.701 131.653C163 131.653 164.839 129.813 164.839 127.513C164.839 125.213 163 123.373 160.701 123.373H130.511L129.591 122.423C129.989 120.521 130.388 118.62 130.878 116.749C131.369 114.879 132.227 112.18 132.963 109.911C150.249 109.543 167.536 109.727 184.762 110.831C191.566 111.168 198.34 112.027 204.991 113.437C205.788 113.652 206.555 113.897 207.321 114.204C207.627 114.357 207.903 114.541 208.179 114.756C207.627 115.216 206.984 115.523 206.279 115.707C205.482 115.952 204.685 116.197 203.857 116.381C200.547 117.117 197.145 117.577 193.743 118.007C180.134 119.571 166.402 120.123 152.702 120.368C166.433 120.368 180.287 120.368 193.865 119.019C197.298 118.743 200.731 118.283 204.133 117.639C204.991 117.455 205.819 117.24 206.677 116.995C207.658 116.78 208.547 116.32 209.282 115.645C209.558 115.339 209.681 114.909 209.62 114.48C209.558 114.143 209.405 113.867 209.191 113.621ZM118.526 92.1543C119.078 86.0516 121.07 80.1329 124.35 74.9501C125.913 72.4048 127.875 70.1048 130.143 68.1727C131.951 66.3941 134.342 65.3207 136.855 65.106C137.315 65.1367 137.775 65.2287 138.204 65.4127C138.756 65.658 139.277 65.9647 139.736 66.3327C140.717 67.0381 141.453 68.0194 141.882 69.1541C142.679 72.0061 142.679 75.0115 141.882 77.8635C140.196 84.3342 137.989 90.6516 135.292 96.7544C134.005 100.005 132.656 103.225 131.338 106.476H120.243C118.741 101.845 118.158 96.9384 118.526 92.0623V92.1543ZM58.8188 117.976C57.6235 117.7 56.4587 117.332 55.3247 116.933L57.1637 116.381C58.7269 115.952 60.2287 115.615 62.0065 115.277C75.4621 113.069 89.0096 111.628 102.618 110.984L112.151 110.524C112.457 111.413 112.794 112.272 113.162 113.131C114.603 116.565 116.411 119.816 118.618 122.821L118.802 123.036C105.408 122.699 92.044 122.024 78.7723 120.859C72.0599 120.307 65.4087 119.325 58.8188 117.976ZM127.66 115.615L126.557 118.681C124.564 116.044 122.879 113.223 121.53 110.217C124.319 110.217 127.108 110.033 129.928 109.941C129.162 111.781 128.396 113.683 127.66 115.615Z" fill="#404755"/>
<path d="M88.6719 316.912C88.6719 313.202 90.8174 310.074 95.9361 306.946C99.7367 304.615 100.809 303.879 100.809 301.732C100.809 299.586 99.7061 298.267 96.733 298.267C94.4035 298.144 92.4112 299.954 92.2886 302.284C92.2886 302.315 92.2886 302.346 92.2886 302.376H88.8558C89.0703 298.298 92.5645 295.17 96.641 295.415C96.7023 295.415 96.7636 295.415 96.8249 295.415C101.698 295.415 104.334 298.267 104.334 301.702C104.334 305.136 102.495 306.516 98.4801 308.939C95.415 310.718 93.4227 312.404 92.871 314.183H105.131L104.641 317.066L88.6719 316.912Z" fill="#404755"/>
<path d="M128.855 306.026C128.855 312.159 126.433 317.25 120.273 317.25C114.112 317.25 111.69 312.374 111.69 306.241C111.69 300.107 114.572 295.17 120.334 295.17C126.096 295.17 128.855 300.169 128.855 306.026ZM115.307 306.21C115.307 310.013 116.533 314.367 120.303 314.367C124.073 314.367 125.269 310.35 125.269 306.026C125.269 302.254 124.196 298.053 120.365 298.053C116.533 298.053 115.307 301.641 115.307 306.302V306.21Z" fill="#404755"/>
<path d="M135.936 316.912C135.936 313.202 138.081 310.074 143.2 306.946C147 304.615 148.073 303.879 148.073 301.732C148.073 299.586 146.97 298.267 143.997 298.267C141.667 298.144 139.675 299.954 139.552 302.284C139.552 302.315 139.552 302.346 139.552 302.376H136.119C136.334 298.298 139.828 295.17 143.905 295.415C143.966 295.415 144.027 295.415 144.089 295.415C148.962 295.415 151.598 298.267 151.598 301.702C151.598 305.136 149.759 306.516 145.744 308.939C142.679 310.718 140.686 312.404 140.135 314.183H152.395L151.905 317.066L135.936 316.912Z" fill="#404755"/>
<path d="M176.118 306.026C176.118 312.159 173.697 317.25 167.536 317.25C161.375 317.25 158.831 312.466 158.831 306.333C158.831 300.199 161.712 295.262 167.475 295.262C173.237 295.262 176.118 300.168 176.118 306.026ZM162.57 306.21C162.57 310.013 163.796 314.367 167.566 314.367C171.336 314.367 172.532 310.35 172.532 306.026C172.532 302.254 171.459 298.052 167.628 298.052C163.796 298.052 162.57 301.64 162.57 306.302V306.21Z" fill="#404755"/>
<path d="M225.497 306.21H195.612V308.173H225.497V306.21Z" fill="#404755"/>
<path d="M69.1782 306.21H39.2939V308.173H69.1782V306.21Z" fill="#404755"/>
</g>
<defs>
<clipPath id="clip0_774_8697">
<rect width="265.25" height="317.25" fill="white"/>
</clipPath>
</defs>
</svg>
